<svg width="296" height="128" viewBox="0 0 296 128" fill="none" xmlns="http://www.w3.org/2000/svg">
<path d="M0 8C0 3.58172 3.58172 0 8 0H288C292.418 0 296 3.58172 296 8V120C296 124.418 292.418 128 288 128H8C3.58172 128 0 124.418 0 120V8Z" fill="#D3D3D3"/>
<rect x="16" y="16" width="96" height="96" rx="48" fill="white"/>
<mask id="mask0_105_844" style="mask-type:alpha" maskUnits="userSpaceOnUse" x="37" y="37" width="54" height="54">
<rect x="37" y="37" width="54" height="54" fill="#D9D9D9"/>
</mask>
<g mask="url(#mask0_105_844)">
<path d="M57.25 86.5C55.075 86.5 53.0313 86.0875 51.1188 85.2625C49.2063 84.4375 47.5375 83.3125 46.1125 81.8875C44.6875 80.4625 43.5625 78.7938 42.7375 76.8813C41.9125 74.9688 41.5 72.925 41.5 70.75C41.5 67.7125 42.2875 64.9375 43.8625 62.425C45.4375 59.9125 47.5 58 50.05 56.6875C50.8 55.225 51.7281 53.9406 52.8344 52.8344C53.9406 51.7281 55.225 50.8 56.6875 50.05C57.925 47.5 59.8188 45.4375 62.3688 43.8625C64.9188 42.2875 67.7125 41.5 70.75 41.5C72.925 41.5 74.9688 41.9125 76.8813 42.7375C78.7938 43.5625 80.4625 44.6875 81.8875 46.1125C83.3125 47.5375 84.4375 49.2063 85.2625 51.1188C86.0875 53.0313 86.5 55.075 86.5 57.25C86.5 60.4375 85.7125 63.25 84.1375 65.6875C82.5625 68.125 80.5 70 77.95 71.3125C77.2 72.775 76.2719 74.0594 75.1656 75.1656C74.0594 76.2719 72.775 77.2 71.3125 77.95C70 80.5 68.0875 82.5625 65.575 84.1375C63.0625 85.7125 60.2875 86.5 57.25 86.5ZM57.25 82C58.4875 82 59.6781 81.8125 60.8219 81.4375C61.9656 81.0625 63.025 80.5 64 79.75C61.825 79.75 59.7813 79.3375 57.8688 78.5125C55.9563 77.6875 54.2875 76.5625 52.8625 75.1375C51.4375 73.7125 50.3125 72.0438 49.4875 70.1313C48.6625 68.2188 48.25 66.175 48.25 64C47.5 64.975 46.9375 66.0344 46.5625 67.1781C46.1875 68.3219 46 69.5125 46 70.75C46 72.325 46.3 73.7875 46.9 75.1375C47.5 76.4875 48.3063 77.6687 49.3188 78.6812C50.3313 79.6937 51.5125 80.5 52.8625 81.1C54.2125 81.7 55.675 82 57.25 82ZM64 75.25C65.2375 75.25 66.4469 75.0625 67.6281 74.6875C68.8094 74.3125 69.8875 73.75 70.8625 73C68.65 73 66.5875 72.5781 64.675 71.7344C62.7625 70.8906 61.0937 69.7563 59.6687 68.3313C58.2437 66.9063 57.1094 65.2375 56.2656 63.325C55.4219 61.4125 55 59.35 55 57.1375C54.25 58.1125 53.6875 59.1906 53.3125 60.3719C52.9375 61.5531 52.75 62.7625 52.75 64C52.75 65.575 53.0406 67.0375 53.6219 68.3875C54.2031 69.7375 55.0187 70.9188 56.0687 71.9313C57.0812 72.9813 58.2625 73.7969 59.6125 74.3781C60.9625 74.9594 62.425 75.25 64 75.25Z" fill="#0B0B0B"/>
</g>
<mask id="mask1_105_844" style="mask-type:alpha" maskUnits="userSpaceOnUse" x="124" y="40" width="48" height="48">
<rect x="124" y="40" width="48" height="48" fill="#D9D9D9"/>
</mask>
<g mask="url(#mask1_105_844)">
<path d="M156.35 66.0002H134C133.433 66.0002 132.958 65.8086 132.575 65.4252C132.192 65.0419 132 64.5669 132 64.0002C132 63.4336 132.192 62.9586 132.575 62.5752C132.958 62.1919 133.433 62.0002 134 62.0002H156.35L146.55 52.2002C146.15 51.8002 145.958 51.3336 145.975 50.8002C145.992 50.2669 146.2 49.8002 146.6 49.4002C147 49.0336 147.467 48.8419 148 48.8252C148.533 48.8086 149 49.0002 149.4 49.4002L162.6 62.6002C162.8 62.8002 162.942 63.0169 163.025 63.2502C163.108 63.4836 163.15 63.7336 163.15 64.0002C163.15 64.2669 163.108 64.5169 163.025 64.7502C162.942 64.9836 162.8 65.2002 162.6 65.4002L149.4 78.6002C149.033 78.9669 148.575 79.1502 148.025 79.1502C147.475 79.1502 147 78.9669 146.6 78.6002C146.2 78.2002 146 77.7252 146 77.1752C146 76.6252 146.2 76.1502 146.6 75.7502L156.35 66.0002Z" fill="#0B0B0B"/>
</g>
<rect x="184" y="16" width="96" height="96" rx="48" fill="white"/>
<mask id="mask2_105_844" style="mask-type:alpha" maskUnits="userSpaceOnUse" x="205" y="37" width="54" height="54">
<rect x="205" y="37" width="54" height="54" fill="#D9D9D9"/>
</mask>
<g mask="url(#mask2_105_844)">
<path d="M232 86.5C228.888 86.5 225.962 85.9094 223.225 84.7281C220.487 83.5469 218.106 81.9438 216.081 79.9188C214.056 77.8938 212.453 75.5125 211.272 72.775C210.091 70.0375 209.5 67.1125 209.5 64C209.5 60.8875 210.091 57.9625 211.272 55.225C212.453 52.4875 214.056 50.1062 216.081 48.0812C218.106 46.0562 220.487 44.4531 223.225 43.2719C225.962 42.0906 228.888 41.5 232 41.5C235.112 41.5 238.038 42.0906 240.775 43.2719C243.513 44.4531 245.894 46.0562 247.919 48.0812C249.944 50.1062 251.547 52.4875 252.728 55.225C253.909 57.9625 254.5 60.8875 254.5 64C254.5 67.1125 253.909 70.0375 252.728 72.775C251.547 75.5125 249.944 77.8938 247.919 79.9188C245.894 81.9438 243.513 83.5469 240.775 84.7281C238.038 85.9094 235.112 86.5 232 86.5ZM232 82C237.025 82 241.281 80.2563 244.769 76.7688C248.256 73.2813 250 69.025 250 64C250 58.975 248.256 54.7188 244.769 51.2313C241.281 47.7438 237.025 46 232 46C226.975 46 222.719 47.7438 219.231 51.2313C215.744 54.7188 214 58.975 214 64C214 69.025 215.744 73.2813 219.231 76.7688C222.719 80.2563 226.975 82 232 82Z" fill="#0B0B0B"/>
</g>
</svg>
